PathFileType  4	(X/Y/Z) C:\Users\antoi\Documents\MyRepositories\mobilecap\ResultsAnalysis
DataRate	CameraRate	NumFrames	NumMarkers	Units	OrigDataRate	OrigDataStartFrame	OrigNumFrames
100.0	100.0	4	51	mm	100.0	34	271
Frame#	Time	r_knee			r_shank_antsup			r_ankle			r_calc			r_5meta			r_toe			L_knee			L_shank_antsup			L_ankle			L_calc			L_5meta			L_toe			r_sh2			r_sh3			r_sh4			L_sh2			L_sh3			r_thigh1			r_thigh2			r_thigh3			r_thigh4			r_thigh5			L_thigh1			L_thigh2			L_thigh3			L_thigh4			r.ASIS			r.PSIS			L.ASIS			L.PSIS			C7			R_Shoulder			L_Shoulder			R_Sternum			L_Sternum			R_humerus			R_elbow_med			R_elbow_lat			R_forearm			R_wrist_radius			R_wrist_ulna			L_humerus			L_elbow_med			L_elbow_lat			L_forearm			L_wrist_radius			L_wrist_ulna			R_HJC			L_HJC			R_HJC_reg			L_HJC_reg			
		X1	Y1	Z1	X2	Y2	Z2	X3	Y3	Z3	X4	Y4	Z4	X5	Y5	Z5	X6	Y6	Z6	X7	Y7	Z7	X8	Y8	Z8	X9	Y9	Z9	X10	Y10	Z10	X11	Y11	Z11	X12	Y12	Z12	X13	Y13	Z13	X14	Y14	Z14	X15	Y15	Z15	X16	Y16	Z16	X17	Y17	Z17	X18	Y18	Z18	X19	Y19	Z19	X20	Y20	Z20	X21	Y21	Z21	X22	Y22	Z22	X23	Y23	Z23	X24	Y24	Z24	X25	Y25	Z25	X26	Y26	Z26	X27	Y27	Z27	X28	Y28	Z28	X29	Y29	Z29	X30	Y30	Z30	X31	Y31	Z31	X32	Y32	Z32	X33	Y33	Z33	X34	Y34	Z34	X35	Y35	Z35	X36	Y36	Z36	X37	Y37	Z37	X38	Y38	Z38	X39	Y39	Z39	X40	Y40	Z40	X41	Y41	Z41	X42	Y42	Z42	X43	Y43	Z43	X44	Y44	Z44	X45	Y45	Z45	X46	Y46	Z46	X47	Y47	Z47	X48	Y48	Z48	X49	Y49	Z49	X50	Y50	Z50	X51	Y51	Z51	

34	0.33000000	-1208.65025	807.74311	-436.18241	-1183.01261	710.95129	-442.44625	-1283.37206	399.70496	-453.71231	-1344.68654	364.73251	-502.57180	-1163.35663	351.46844	-415.88827	-1131.16415	381.02602	-469.68124	-1216.71061	813.08773	-727.92463	-1185.15163	726.48077	-716.49730	-1273.11687	404.69310	-711.83845	-1343.13518	361.02854	-668.56251	-1166.44002	351.07809	-752.39421	-1120.78602	375.31649	-695.83880	-1200.58100	598.48844	-445.59418	-1245.81430	718.77183	-401.38130	-1270.67768	605.26588	-400.85848	-1264.22690	747.51288	-755.69719	-1281.72467	626.80448	-760.11197	-1147.25176	1085.39116	-414.22463	-1144.30545	975.33040	-429.70267	-1194.43728	945.22090	-395.86218	-1259.59413	1075.00249	-394.36724	-1247.63009	960.64771	-410.82573	-1135.20494	1057.65048	-744.70435	-1130.76434	919.83638	-720.29577	-1240.45393	1048.65171	-782.31647	-1235.40418	917.97781	-749.63225	-1115.72364	1276.00361	-460.95618	-1320.32307	1322.17938	-538.16162	-1121.63034	1279.11799	-716.48775	-1320.48271	1322.24865	-631.76136	-1271.86694	1776.15121	-581.26853	-1209.01324	1746.97768	-415.97577	-1198.08211	1745.35014	-735.10441	-1148.94230	1704.74427	-557.02582	-1150.28444	1704.17584	-602.69115	-1169.04447	1615.30427	-365.93724	-1255.59464	1416.91765	-400.30004	-1228.54594	1424.00573	-343.64825	-1169.45765	1359.51472	-332.10740	-1117.47112	1199.11361	-375.19319	-1144.05117	1197.30472	-332.83934	-1167.21162	1605.46220	-793.16150	-1246.55822	1404.49726	-748.79679	-1216.64596	1418.89900	-818.95950	-1165.46990	1361.54499	-830.23649	-1115.75525	1189.18906	-807.50575	-1151.76003	1192.15168	-848.07324	-1204.20734	1194.27730	-486.42212	-1206.84874	1197.18159	-675.94398	-1195.82825	1205.14413	-496.98959	-1196.11593	1205.26889	-665.69771	
35	0.34000000	-1208.04313	807.55580	-436.31516	-1182.39309	710.80053	-442.55354	-1283.37433	399.56053	-453.69461	-1344.71609	364.76934	-502.53925	-1163.40699	351.52534	-415.92768	-1131.21372	381.15776	-469.59614	-1216.04052	812.90677	-727.68508	-1184.46519	726.28945	-716.36844	-1273.08016	404.70480	-711.88806	-1343.15864	361.03315	-668.56985	-1166.45106	351.09219	-752.39066	-1120.81704	375.34746	-695.82921	-1200.17278	598.39171	-445.60465	-1245.22689	718.73980	-401.45479	-1270.39319	605.18650	-400.90436	-1263.49851	747.39982	-755.51271	-1281.21157	626.86249	-760.14094	-1147.72008	1085.56602	-413.91169	-1143.77717	975.26474	-429.99338	-1193.99896	945.01610	-396.05892	-1259.31910	1074.95757	-394.14389	-1247.22521	960.56777	-410.78816	-1134.89271	1057.47207	-744.83403	-1130.16489	919.57053	-720.05863	-1240.05750	1048.49937	-782.17625	-1234.90434	917.77969	-749.50365	-1115.41471	1275.84534	-460.85360	-1319.99590	1322.26668	-538.21049	-1121.24300	1278.99361	-716.42622	-1320.08981	1322.30615	-631.73814	-1270.18421	1776.31810	-581.21721	-1207.54875	1746.81979	-415.83047	-1196.40656	1745.26255	-734.90499	-1147.47337	1704.44560	-556.70895	-1148.71873	1703.86395	-602.31360	-1167.92593	1615.12510	-365.68920	-1254.76739	1417.09992	-400.22302	-1228.02619	1424.07644	-343.41062	-1169.33285	1359.26708	-331.64889	-1117.08371	1199.00411	-374.55726	-1143.82384	1197.09941	-332.43148	-1166.04841	1605.16941	-792.97755	-1247.52338	1404.46539	-749.45845	-1216.45481	1419.03962	-819.08404	-1165.47466	1361.31337	-830.63966	-1118.61541	1188.16961	-808.71690	-1153.22666	1191.91169	-848.77556	-1204.00344	1194.22295	-486.38566	-1206.56276	1197.13796	-675.90846	-1195.64277	1205.11627	-496.92538	-1195.81232	1205.18752	-665.65987	
36	0.35000000	-1207.41030	807.35202	-436.44561	-1181.74445	710.63540	-442.61359	-1283.39299	399.40065	-453.67706	-1344.76284	364.77648	-502.54321	-1163.48998	351.61995	-415.98053	-1131.27732	381.33346	-469.51509	-1215.34033	812.77848	-727.50343	-1183.78611	726.04137	-716.20161	-1273.05086	404.67474	-711.92566	-1343.17107	361.03524	-668.61675	-1166.46656	351.10150	-752.39305	-1120.84318	375.40497	-695.87147	-1199.83265	598.28235	-445.60570	-1244.53832	718.68872	-401.68579	-1269.99055	605.30063	-400.96073	-1262.75281	747.36342	-755.46032	-1280.68685	626.88400	-760.14302	-1147.44906	1085.67313	-413.68483	-1143.25411	975.29415	-430.11963	-1193.45991	944.86710	-396.10179	-1259.03576	1074.72159	-394.14107	-1246.75921	960.43778	-410.77814	-1134.89839	1057.36983	-745.25540	-1129.52268	919.41802	-719.84712	-1239.59302	1048.38194	-782.18924	-1234.34228	917.69042	-749.56263	-1115.12351	1275.64272	-460.76340	-1319.69989	1322.34701	-538.22653	-1120.83442	1278.78419	-716.24018	-1319.71097	1322.35083	-631.79475	-1268.40719	1776.50019	-581.17307	-1206.02751	1746.66091	-415.70512	-1194.62294	1745.00198	-734.66169	-1145.92109	1704.08519	-556.48244	-1147.05928	1703.52081	-602.05321	-1166.72666	1614.88789	-365.55290	-1254.06280	1417.13796	-400.05133	-1227.41842	1424.15125	-343.19739	-1168.95067	1359.06804	-331.17867	-1116.77156	1198.82954	-373.84063	-1143.58808	1196.94046	-331.72021	-1164.80811	1604.88618	-792.88677	-1248.23711	1404.51861	-750.12039	-1216.28527	1419.16815	-819.21515	-1165.92261	1361.14933	-830.94955	-1121.06208	1187.33170	-809.86332	-1154.74487	1191.64495	-849.51194	-1203.85981	1194.14549	-486.31072	-1206.28823	1197.03866	-675.83558	-1195.48331	1205.08491	-496.86081	-1195.50337	1205.09185	-665.53033	
37	0.36000000	-1206.71420	807.25637	-436.47607	-1181.14654	710.38870	-442.67417	-1283.42997	399.41657	-453.65689	-1344.79572	364.77330	-502.55684	-1163.53110	351.69874	-415.98661	-1131.35191	381.46072	-469.48607	-1214.63633	812.63929	-727.40536	-1183.10437	725.80756	-716.17972	-1273.02401	404.63220	-711.95381	-1343.18803	361.02098	-668.66971	-1166.48839	351.10075	-752.40000	-1120.84608	375.46442	-695.93722	-1199.55038	598.15202	-445.59459	-1243.90156	718.64888	-401.81173	-1269.42512	605.58491	-401.06060	-1261.95756	747.40861	-755.62482	-1280.16433	626.77649	-759.96035	-1146.36837	1085.59645	-413.78378	-1142.84711	975.29914	-430.02101	-1192.90488	944.72625	-396.04138	-1258.68485	1074.36435	-394.37755	-1246.25267	960.21564	-410.80349	-1134.91552	1057.31908	-745.59164	-1128.94279	919.38222	-719.70773	-1239.07426	1048.30460	-782.30532	-1233.74802	917.65519	-749.69516	-1114.88554	1275.44429	-460.63852	-1319.37267	1322.46438	-538.15640	-1120.45442	1278.57772	-715.99949	-1319.31273	1322.40830	-631.72987	-1266.44842	1776.70921	-581.11541	-1204.40673	1746.50184	-415.57316	-1192.65312	1744.77442	-734.34290	-1144.25317	1703.68650	-556.30836	-1145.34503	1703.19932	-601.95829	-1165.43961	1614.65551	-365.44284	-1253.33333	1417.11895	-399.84581	-1226.73488	1424.20419	-342.97984	-1168.45351	1358.90801	-330.77389	-1116.50762	1198.59380	-373.05968	-1143.41355	1196.85322	-330.89836	-1163.58239	1604.66708	-792.87093	-1248.30595	1404.63776	-750.55457	-1216.12038	1419.28966	-819.33761	-1166.66101	1360.98960	-831.12508	-1122.60745	1186.74424	-810.86330	-1156.33671	1191.34851	-850.48299	-1203.72977	1194.07924	-486.16419	-1206.05021	1196.95216	-675.69074	-1195.36271	1205.11076	-496.73019	-1195.25471	1205.00958	-665.32107	
